<?xml version="1.0" encoding="UTF-8"?>
<svg version="1.1" xmlns="http://www.w3.org/2000/svg" width="249" height="249">
<path d="M0 0 C3.41456029 2.91905657 6.72771888 5.92290757 10 9 C10.59039062 9.5259375 11.18078125 10.051875 11.7890625 10.59375 C32.0853215 29.44714699 44.84913109 60.33979546 46.1262207 87.70458984 C46.47493976 101.07104654 46.30980773 113.99858006 43 127 C42.83371094 127.65726074 42.66742188 128.31452148 42.49609375 128.99169922 C34.05191114 161.08741181 13.43797867 188.05645542 -15 205 C-44.34135812 221.74597336 -78.61314552 226.64664107 -111.33203125 217.8984375 C-131.84746579 211.97191941 -149.48186828 202.41488115 -164.59960938 187.38134766 C-165.85933344 186.13875373 -167.1542777 184.93210933 -168.453125 183.73046875 C-190.15172165 163.28371421 -202.19323707 131.88782864 -203.203125 102.4140625 C-203.77696921 67.22315752 -192.10569057 35.21746789 -167.65625 9.68359375 C-123.28055616 -35.1489087 -49.06749251 -40.45311531 0 0 Z " fill="#0C151B" transform="translate(203,27)"/>
<path d="M0 0 C1.20789185 0.46067871 1.20789185 0.46067871 2.44018555 0.93066406 C32.59714588 12.74663626 55.65768305 35.2034792 68.625 64.875 C71.34167546 71.28761767 72.87192129 76.97299707 73.625 83.875 C72.87404053 83.69324219 72.12308105 83.51148437 71.34936523 83.32421875 C67.92231872 82.49963441 64.49249624 81.68722311 61.0625 80.875 C59.88107422 80.58882813 58.69964844 80.30265625 57.48242188 80.0078125 C46.88345779 77.12733344 46.88345779 77.12733344 36.69921875 79.85546875 C32.02588754 83.05775379 28.25622967 87.03257595 24.4375 91.1875 C23.75236328 91.90873047 23.06722656 92.62996094 22.36132812 93.37304688 C18.13579685 97.90766417 14.70036576 102.50128353 11.625 107.875 C10.95855469 108.9990625 10.29210937 110.123125 9.60546875 111.28125 C8.71794922 112.81265625 8.71794922 112.81265625 7.8125 114.375 C7.20792969 115.4165625 6.60335937 116.458125 5.98046875 117.53125 C5.53316406 118.3046875 5.08585938 119.078125 4.625 119.875 C4.295 119.215 3.965 118.555 3.625 117.875 C4.69908957 115.27025962 5.82545633 112.77533962 7.0625 110.25 C7.40087891 109.54359375 7.73925781 108.8371875 8.08789062 108.109375 C8.92654879 106.36118616 9.77487847 104.61764314 10.625 102.875 C9.47837891 102.26410522 9.47837891 102.26410522 8.30859375 101.64086914 C5.39526585 100.08757631 2.48285032 98.53259616 -0.42904663 96.97662354 C-1.72395442 96.28515313 -3.01922118 95.59435455 -4.31484985 94.90423584 C-16.88007457 88.21045077 -16.88007457 88.21045077 -22.48046875 84.91015625 C-23.54297852 84.28645142 -23.54297852 84.28645142 -24.62695312 83.65014648 C-25.86444815 82.91479847 -27.09453294 82.16673801 -28.31445312 81.40258789 C-32.81238121 78.73375571 -37.17825009 77.65567644 -42.375 77.875 C-52.0544835 81.89591336 -58.30165715 94.92271012 -64.13671875 103.2734375 C-66.35914906 106.44716891 -68.61323377 109.59487766 -70.89453125 112.7265625 C-71.47565674 113.52449219 -72.05678223 114.32242188 -72.65551758 115.14453125 C-73.77102632 116.67263409 -74.88919719 118.1987985 -76.01049805 119.72265625 C-81.17229892 126.80318222 -85.14485452 134.25665582 -88.90625 142.15234375 C-91.15868304 146.76684152 -91.15868304 146.76684152 -93.375 147.875 C-91.72933477 142.18997465 -89.08467216 137.10818364 -86.375 131.875 C-89.24956281 131.22716876 -92.12461759 130.58167482 -95 129.9375 C-95.80824219 129.75509766 -96.61648437 129.57269531 -97.44921875 129.38476562 C-101.74395075 128.42456132 -106.02137946 127.53368899 -110.375 126.875 C-111.17421875 126.73835937 -111.9734375 126.60171875 -112.796875 126.4609375 C-117.08741667 126.07219715 -119.51799018 126.28466933 -123.13671875 128.77734375 C-125.66564809 131.05522609 -128.04279187 133.39729631 -130.375 135.875 C-130.98472656 136.34292969 -131.59445313 136.81085938 -132.22265625 137.29296875 C-133.65366568 138.91550563 -133.65366568 138.91550563 -133.27734375 141.59375 C-126.44972049 166.42147093 -105.172375 188.37091812 -83.43310547 201.00341797 C-58.93906466 214.69495873 -31.1034781 217.28878734 -4.1340332 210.04638672 C21.24604205 202.80319805 41.77443182 187.74023747 56.625 165.875 C57.08132812 165.20597656 57.53765625 164.53695312 58.0078125 163.84765625 C58.89313962 162.53204777 59.76204437 161.20538993 60.625 159.875 C60.955 160.535 61.285 161.195 61.625 161.875 C60.45984252 164.24517562 59.24638735 166.43903984 57.875 168.6875 C57.46886475 169.35604004 57.06272949 170.02458008 56.64428711 170.71337891 C42.97738691 192.60009501 23.34409214 206.50805764 -0.375 215.875 C-1.1690625 216.20113281 -1.963125 216.52726563 -2.78125 216.86328125 C-23.31237564 224.56245336 -46.56904629 223.6127851 -67.375 217.875 C-68.38167725 217.60212158 -68.38167725 217.60212158 -69.40869141 217.32373047 C-84.5219048 213.09897759 -97.25660439 205.69197923 -109.375 195.875 C-110.07882813 195.33617187 -110.78265625 194.79734375 -111.5078125 194.2421875 C-127.11507599 181.66791449 -136.74498017 162.37489404 -143.375 143.875 C-143.69210938 143.01777344 -144.00921875 142.16054687 -144.3359375 141.27734375 C-153.38955072 114.43024315 -148.93534295 82.60919853 -136.5625 57.625 C-130.36528726 45.57954943 -122.73554481 35.57387775 -113.375 25.875 C-112.7459375 25.194375 -112.116875 24.51375 -111.46875 23.8125 C-106.96322767 19.0519481 -101.86723605 15.42553643 -96.375 11.875 C-95.49199219 11.2975 -94.60898438 10.72 -93.69921875 10.125 C-66.77331968 -6.55937453 -29.86607353 -11.58039009 0 0 Z " fill="#199497" transform="translate(159.375,16.125)"/>
<path d="M0 0 C1.20789185 0.46067871 1.20789185 0.46067871 2.44018555 0.93066406 C32.59714588 12.74663626 55.65768305 35.2034792 68.625 64.875 C71.34167546 71.28761767 72.87192129 76.97299707 73.625 83.875 C72.87404053 83.69324219 72.12308105 83.51148437 71.34936523 83.32421875 C67.92231872 82.49963441 64.49249624 81.68722311 61.0625 80.875 C59.88107422 80.58882813 58.69964844 80.30265625 57.48242188 80.0078125 C46.88345779 77.12733344 46.88345779 77.12733344 36.69921875 79.85546875 C32.02588754 83.05775379 28.25622967 87.03257595 24.4375 91.1875 C23.75236328 91.90873047 23.06722656 92.62996094 22.36132812 93.37304688 C18.13579685 97.90766417 14.70036576 102.50128353 11.625 107.875 C10.95855469 108.9990625 10.29210937 110.123125 9.60546875 111.28125 C8.71794922 112.81265625 8.71794922 112.81265625 7.8125 114.375 C7.20792969 115.4165625 6.60335937 116.458125 5.98046875 117.53125 C5.53316406 118.3046875 5.08585938 119.078125 4.625 119.875 C4.295 119.215 3.965 118.555 3.625 117.875 C4.69908957 115.27025962 5.82545633 112.77533962 7.0625 110.25 C7.40087891 109.54359375 7.73925781 108.8371875 8.08789062 108.109375 C8.92654879 106.36118616 9.77487847 104.61764314 10.625 102.875 C9.47837891 102.26410522 9.47837891 102.26410522 8.30859375 101.64086914 C5.39526585 100.08757631 2.48285032 98.53259616 -0.42904663 96.97662354 C-1.72395442 96.28515313 -3.01922118 95.59435455 -4.31484985 94.90423584 C-16.88007457 88.21045077 -16.88007457 88.21045077 -22.48046875 84.91015625 C-23.54297852 84.28645142 -23.54297852 84.28645142 -24.62695312 83.65014648 C-25.86444815 82.91479847 -27.09453294 82.16673801 -28.31445312 81.40258789 C-32.81238121 78.73375571 -37.17825009 77.65567644 -42.375 77.875 C-52.0544835 81.89591336 -58.30165715 94.92271012 -64.13671875 103.2734375 C-66.35914906 106.44716891 -68.61323377 109.59487766 -70.89453125 112.7265625 C-71.47565674 113.52449219 -72.05678223 114.32242188 -72.65551758 115.14453125 C-73.77102632 116.67263409 -74.88919719 118.1987985 -76.01049805 119.72265625 C-81.17229892 126.80318222 -85.14485452 134.25665582 -88.90625 142.15234375 C-91.15868304 146.76684152 -91.15868304 146.76684152 -93.375 147.875 C-91.72933477 142.18997465 -89.08467216 137.10818364 -86.375 131.875 C-89.24956281 131.22716876 -92.12461759 130.58167482 -95 129.9375 C-95.80824219 129.75509766 -96.61648437 129.57269531 -97.44921875 129.38476562 C-101.74395075 128.42456132 -106.02137946 127.53368899 -110.375 126.875 C-111.17421875 126.73835937 -111.9734375 126.60171875 -112.796875 126.4609375 C-117.08741667 126.07219715 -119.51799018 126.28466933 -123.13671875 128.77734375 C-125.66564809 131.05522609 -128.04279187 133.39729631 -130.375 135.875 C-130.98472656 136.34292969 -131.59445313 136.81085938 -132.22265625 137.29296875 C-133.65366568 138.91550563 -133.65366568 138.91550563 -133.27734375 141.59375 C-126.44972049 166.42147093 -105.172375 188.37091812 -83.43310547 201.00341797 C-58.93906466 214.69495873 -31.1034781 217.28878734 -4.1340332 210.04638672 C21.24604205 202.80319805 41.77443182 187.74023747 56.625 165.875 C57.08132812 165.20597656 57.53765625 164.53695312 58.0078125 163.84765625 C58.89313962 162.53204777 59.76204437 161.20538993 60.625 159.875 C60.955 160.535 61.285 161.195 61.625 161.875 C60.45984252 164.24517562 59.24638735 166.43903984 57.875 168.6875 C57.46886475 169.35604004 57.06272949 170.02458008 56.64428711 170.71337891 C42.97738691 192.60009501 23.34409214 206.50805764 -0.375 215.875 C-1.1690625 216.20113281 -1.963125 216.52726563 -2.78125 216.86328125 C-23.31237564 224.56245336 -46.56904629 223.6127851 -67.375 217.875 C-68.38167725 217.60212158 -68.38167725 217.60212158 -69.40869141 217.32373047 C-84.5219048 213.09897759 -97.25660439 205.69197923 -109.375 195.875 C-110.07882813 195.33617187 -110.78265625 194.79734375 -111.5078125 194.2421875 C-127.11507599 181.66791449 -136.74498017 162.37489404 -143.375 143.875 C-143.69210938 143.01777344 -144.00921875 142.16054687 -144.3359375 141.27734375 C-153.38955072 114.43024315 -148.93534295 82.60919853 -136.5625 57.625 C-130.36528726 45.57954943 -122.73554481 35.57387775 -113.375 25.875 C-112.7459375 25.194375 -112.116875 24.51375 -111.46875 23.8125 C-106.96322767 19.0519481 -101.86723605 15.42553643 -96.375 11.875 C-95.49199219 11.2975 -94.60898438 10.72 -93.69921875 10.125 C-66.77331968 -6.55937453 -29.86607353 -11.58039009 0 0 Z M-78.375 12.875 C-78.96522949 13.15859375 -79.55545898 13.4421875 -80.16357422 13.734375 C-89.2038303 18.13221151 -96.80596225 23.19065498 -104.375 29.875 C-105.38046875 30.6484375 -105.38046875 30.6484375 -106.40625 31.4375 C-126.63209598 47.35291979 -136.88500925 74.06948496 -139.87890625 98.75390625 C-140.8091482 107.51845302 -141.00123486 116.17988944 -139.375 124.875 C-135.72358644 123.3494094 -133.47381888 121.15019091 -130.75 118.3125 C-125.63867863 113.00589559 -125.63867863 113.00589559 -122.5625 112.68725586 C-115.56558258 112.57558631 -109.504061 114.22101511 -102.8359375 116.18554688 C-97.28679853 117.71027159 -91.94166015 118.91475923 -86.375 116.875 C-83.89954614 114.87963192 -82.29327393 112.52222986 -80.5625 109.875 C-80.06169922 109.15948975 -79.56089844 108.44397949 -79.04492188 107.70678711 C-77.99283033 106.19908476 -76.95244314 104.6831539 -75.92333984 103.15966797 C-74.43273572 100.9601925 -72.90748644 98.79099477 -71.36328125 96.62890625 C-67.22817891 90.83436642 -63.1441813 85.00717289 -59.12890625 79.12890625 C-58.32743164 77.96669556 -58.32743164 77.96669556 -57.50976562 76.78100586 C-56.48841084 75.29924845 -55.47490623 73.81203806 -54.47070312 72.31860352 C-51.86983556 68.55973494 -49.74496757 65.64460047 -45.375 63.875 C-39.95929491 63.26979669 -36.28899494 65.0845977 -31.66796875 67.63671875 C-30.58072258 68.21822441 -30.58072258 68.21822441 -29.47151184 68.81147766 C-27.16206862 70.05027202 -24.86238497 71.30606572 -22.5625 72.5625 C-21.02860055 73.3884957 -19.49410028 74.21337668 -17.95898438 75.03710938 C-16.46596113 75.8408028 -14.97311947 76.64483367 -13.48046875 77.44921875 C-12.75576385 77.83939178 -12.03105896 78.22956482 -11.28439331 78.63156128 C-7.5731637 80.64155358 -3.9581468 82.74390555 -0.36328125 84.95703125 C3.16890187 86.85832294 6.23869547 87.91500986 10.28613281 87.66699219 C15.65568131 85.84874424 19.27090489 81.07366128 23 77 C24.75621667 75.14692378 26.51395987 73.29529276 28.2734375 71.4453125 C29.03833496 70.61789551 29.80323242 69.79047852 30.59130859 68.93798828 C33.01614323 66.47822206 34.66093219 64.9610527 38.16870117 64.64794922 C39.15845947 64.65842285 40.14821777 64.66889648 41.16796875 64.6796875 C42.77768555 64.68935547 42.77768555 64.68935547 44.41992188 64.69921875 C45.53947266 64.71597656 46.65902344 64.73273438 47.8125 64.75 C48.94365234 64.75902344 50.07480469 64.76804688 51.24023438 64.77734375 C54.03536828 64.80093138 56.83007845 64.833847 59.625 64.875 C58.85609112 60.38510439 57.23354194 57.14839851 54.75 53.375 C54.35071289 52.76551514 53.95142578 52.15603027 53.54003906 51.52807617 C37.84003258 28.08398399 15.17276159 11.36643624 -12.5625 5 C-34.83883286 0.94692532 -57.98149847 2.98086249 -78.375 12.875 Z " fill="#F9FAFA" transform="translate(159.375,16.125)"/>
<path d="M0 0 C2.02408755 0.09002398 4.04544287 0.24641038 6.0625 0.4375 C7.16722656 0.53933594 8.27195312 0.64117187 9.41015625 0.74609375 C10.26480469 0.82988281 11.11945313 0.91367188 12 1 C10.03617993 2.50559539 8.21736634 3.89131683 6 5 C5.08968728 7.34386809 5.08968728 7.34386809 4.375 10.0625 C4.11460938 10.98160156 3.85421875 11.90070313 3.5859375 12.84765625 C3.39257812 13.55792969 3.19921875 14.26820312 3 15 C1 12 1 12 0 10 C-0.99 12.64 -1.98 15.28 -3 18 C-3.66 18 -4.32 18 -5 18 C-5.33 17.01 -5.66 16.02 -6 15 C-8.31 17.97 -10.62 20.94 -13 24 C-13 19.79667464 -10.84305414 17.0872544 -8.6875 13.625 C-8.28337891 12.965 -7.87925781 12.305 -7.46289062 11.625 C-6.67397437 10.33707819 -5.88222965 9.05088385 -5.08740234 7.76660156 C-4.13277926 6.21571413 -3.19939165 4.65179723 -2.26953125 3.0859375 C-1 1 -1 1 0 0 Z " fill="#F2F2F2" transform="translate(114,96)"/>
<path d="M0 0 C2.82259393 0.38160944 5.58358733 0.78210072 8.3515625 1.453125 C5.3515625 3.453125 5.3515625 3.453125 2.3515625 4.453125 C1.33401382 6.3184495 1.33401382 6.3184495 0.6640625 8.515625 C0.41269531 9.24910156 0.16132813 9.98257813 -0.09765625 10.73828125 C-0.27941406 11.30417969 -0.46117187 11.87007812 -0.6484375 12.453125 C-1.3084375 12.123125 -1.9684375 11.793125 -2.6484375 11.453125 C-2.6484375 10.463125 -2.6484375 9.473125 -2.6484375 8.453125 C-3.3084375 8.453125 -3.9684375 8.453125 -4.6484375 8.453125 C-5.3084375 11.093125 -5.9684375 13.733125 -6.6484375 16.453125 C-7.3084375 16.453125 -7.9684375 16.453125 -8.6484375 16.453125 C-8.9784375 15.463125 -9.3084375 14.473125 -9.6484375 13.453125 C-12.6184375 15.928125 -12.6184375 15.928125 -15.6484375 18.453125 C-13.81590267 14.44382228 -11.42234131 10.84526236 -8.9609375 7.203125 C-8.55166016 6.5534375 -8.14238281 5.90375 -7.72070312 5.234375 C-5.2655129 1.64398929 -4.50719628 0.55978027 0 0 Z " fill="#EEEEEE" transform="translate(202.6484375,94.546875)"/>
<path d="M0 0 C0.78503906 0.07863281 1.57007812 0.15726562 2.37890625 0.23828125 C4.4375 0.6875 4.4375 0.6875 6.4375 2.6875 C5.7775 3.3475 5.1175 4.0075 4.4375 4.6875 C1.6171875 4.6640625 1.6171875 4.6640625 -1.6875 4.3125 C-2.78320312 4.20164062 -3.87890625 4.09078125 -5.0078125 3.9765625 C-5.85085937 3.88117188 -6.69390625 3.78578125 -7.5625 3.6875 C-9.21210668 6.43528677 -10.85886976 9.18463636 -12.5 11.9375 C-14.5625 14.6875 -14.5625 14.6875 -16.8125 15.5625 C-17.39 15.60375 -17.9675 15.645 -18.5625 15.6875 C-17.18461705 12.7405446 -15.58772155 10.21699105 -13.625 7.625 C-13.12097656 6.95339844 -12.61695312 6.28179687 -12.09765625 5.58984375 C-8.44604651 1.06482099 -5.98298249 -0.6603951 0 0 Z " fill="#2C3237" transform="translate(121.5625,93.3125)"/>
<path d="M0 0 C-2.67953841 2.67953841 -5.39665745 2.97047356 -9 4 C-9.66 4.66 -10.32 5.32 -11 6 C-11.66 6 -12.32 6 -13 6 C-14.80060998 7.55683115 -14.80060998 7.55683115 -16.625 9.5 C-17.25664062 10.1496875 -17.88828125 10.799375 -18.5390625 11.46875 C-19.02117187 11.9740625 -19.50328125 12.479375 -20 13 C-20.66 12.67 -21.32 12.34 -22 12 C-10.10714286 -0.60642857 -10.10714286 -0.60642857 0 0 Z " fill="#4A4E53" transform="translate(207,93)"/>
<path d="M0 0 C0.33 0.66 0.66 1.32 1 2 C-0.33664882 4.63189701 -1.72223143 7.10812898 -3.25 9.625 C-3.65863281 10.33140625 -4.06726563 11.0378125 -4.48828125 11.765625 C-5.56978956 13.56697968 -6.77759217 15.29112375 -8 17 C-8.99 17 -9.98 17 -11 17 C-9.4785708 13.72132006 -7.5944185 10.87944802 -5.5 7.9375 C-3.63418777 5.30876031 -1.78832004 2.68248007 0 0 Z " fill="#E5E4E5" transform="translate(220,176)"/>
<path d="M0 0 C0.33 0.66 0.66 1.32 1 2 C-0.02781636 4.42965185 -1.10698548 6.7237552 -2.3125 9.0625 C-2.63412109 9.71283203 -2.95574219 10.36316406 -3.28710938 11.03320312 C-5.73761977 15.86880989 -5.73761977 15.86880989 -8 17 C-6.43889165 11.60708025 -4.0683009 4.0683009 0 0 Z " fill="#DEDEDF" transform="translate(74,147)"/>
</svg>
